<svg width="512" height="512" viewBox="0 0 512 512" fill="none" xmlns="http://www.w3.org/2000/svg">
<path d="M435 256C435 354.859 354.859 435 256 435C157.141 435 77 354.859 77 256C77 157.141 157.141 77 256 77C354.859 77 435 157.141 435 256Z" fill="white"/>
<path fill-rule="evenodd" clip-rule="evenodd" d="M271 118C271 109.716 264.284 103 256 103C247.716 103 241 109.716 241 118V258C241 262.499 242.981 266.535 246.118 269.285C246.319 269.506 246.527 269.723 246.744 269.934L317.299 338.956C323.221 344.749 332.717 344.644 338.511 338.723C344.304 332.801 344.199 323.304 338.277 317.511L271 251.696V118Z" fill="url(#paint0_linear_1_61)"/>
<path fill-rule="evenodd" clip-rule="evenodd" d="M481 256C481 380.264 380.264 481 256 481C131.736 481 31 380.264 31 256C31 131.736 131.736 31 256 31C380.264 31 481 131.736 481 256ZM256 431C352.65 431 431 352.65 431 256C431 159.35 352.65 81 256 81C159.35 81 81 159.35 81 256C81 352.65 159.35 431 256 431Z" fill="url(#paint1_linear_1_61)"/>
<path fill-rule="evenodd" clip-rule="evenodd" d="M256 93C269.807 93 281 104.193 281 118V247.489L345.27 310.362C355.14 320.017 355.314 335.846 345.659 345.715C336.004 355.585 320.176 355.759 310.306 346.104L239.751 277.083L246.744 269.934L317.299 338.956C323.221 344.749 332.717 344.644 338.511 338.723C344.304 332.801 344.199 323.304 338.277 317.511L271 251.696V118C271 109.716 264.284 103 256 103C247.716 103 241 109.716 241 118V258C241 262.499 242.981 266.535 246.118 269.285C246.319 269.506 246.527 269.723 246.744 269.934L239.751 277.083C239.53 276.867 239.313 276.647 239.102 276.424C234.136 271.867 231 265.294 231 258V118C231 104.193 242.193 93 256 93ZM491 256C491 385.787 385.787 491 256 491C126.213 491 21 385.787 21 256C21 126.213 126.213 21 256 21C385.787 21 491 126.213 491 256ZM256 421C347.127 421 421 347.127 421 256C421 164.873 347.127 91 256 91C164.873 91 91 164.873 91 256C91 347.127 164.873 421 256 421ZM256 481C380.264 481 481 380.264 481 256C481 131.736 380.264 31 256 31C131.736 31 31 131.736 31 256C31 380.264 131.736 481 256 481ZM431 256C431 352.65 352.65 431 256 431C159.35 431 81 352.65 81 256C81 159.35 159.35 81 256 81C352.65 81 431 159.35 431 256Z" fill="black"/>
<defs>
<linearGradient id="paint0_linear_1_61" x1="96.2" y1="88.8889" x2="419.456" y2="425.2" gradientUnits="userSpaceOnUse">
<stop stop-color="#326CE5"/>
<stop offset="1" stop-color="#32E59A"/>
</linearGradient>
<linearGradient id="paint1_linear_1_61" x1="96.2" y1="88.8889" x2="419.456" y2="425.2" gradientUnits="userSpaceOnUse">
<stop stop-color="#326CE5"/>
<stop offset="1" stop-color="#32E59A"/>
</linearGradient>
</defs>
</svg>
